# xmcd
#
# Track frame offsets: 
#        150
#        10725
#        23763
#        34988
#        52138
#        73088
#        83725
#        94525
#        106800
#        119625
#        131525
#        143500
#        159063
#        175075
#        188150
#
# Disc length: 2695 seconds
#
# Revision: 0
# Processed by: cddbd v1.5.2PL0 Copyright (c) Steve Scherf et al.
# Submitted via: ExactAudioCopy v0.99pb4
#
DISCID=bb0a850f
DTITLE=Lorry, Joe and the Blue Mountain Band - Country is my love
DYEAR=1988
DGENRE=Country
TTITLE0=Wreck of the old 97
TTITLE1=I saw the light
TTITLE2=Truck driving man
TTITLE3=Will the circle be unbroken
TTITLE4=Red River Valley
TTITLE5=USA
TTITLE6=Some broken hearts never mend
TTITLE7=You are my sunshine
TTITLE8=Song for my bear
TTITLE9=Clementine
TTITLE10=Jambalaya
TTITLE11=Banks of the Ohio
TTITLE12=This land is your land
TTITLE13=Roll in my sweet baby's arms
TTITLE14=I don't feign to be an angel
EXTD=
EXTT0=
EXTT1=
EXTT2=
EXTT3=
EXTT4=
EXTT5=
EXTT6=
EXTT7=
EXTT8=
EXTT9=
EXTT10=
EXTT11=
EXTT12=
EXTT13=
EXTT14=
PLAYORDER=
